<svg width="1024" height="1024" viewBox="0 0 1024 1024" fill="none" xmlns="http://www.w3.org/2000/svg">
  <!-- Top Left -->
  <path d="M170 150H405C455 150 485 170 510 205L565 275L485 365L405 275H170L235 205C260 170 290 150 340 150H170Z" fill="#000000"/>
  <!-- Top Center Diagonal -->
  <path d="M600 160C630 130 675 130 705 160L785 240L520 560C490 590 445 590 415 560L370 515L600 160Z" fill="#000000"/>
  <!-- Top Right -->
  <path d="M735 150H870C910 150 940 165 965 195L1000 240C1025 270 1025 315 1000 345L935 435H770L855 310L735 150Z" fill="#000000"/>
  <!-- Left Upper -->
  <path d="M105 290H255L160 410C135 440 125 470 125 505L60 435C35 405 25 365 40 330C55 305 75 290 105 290Z" fill="#000000"/>
  <!-- Left Main Diagonal -->
  <path d="M250 380L525 655L445 760L175 490C145 460 145 415 175 385L205 355L250 380Z" fill="#000000"/>
  <!-- Right Main Diagonal -->
  <path d="M650 360L925 635C955 665 955 710 925 740L850 815L575 540L650 360Z" fill="#000000"/>
  <!-- Center Bottom Diagonal -->
  <path d="M575 700L655 780L425 1010L345 930C315 900 315 855 345 825L575 700Z" fill="#000000"/>
  <!-- Bottom Left -->
  <path d="M85 680H245L165 790C140 820 125 850 125 890V955L50 880C20 850 10 810 25 770C40 725 60 700 85 680Z" fill="#000000"/>
  <!-- Bottom Left Triangle -->
  <path d="M185 555L305 675H110L185 555Z" fill="#000000"/>
  <!-- Mid Right Triangle -->
  <path d="M835 455L910 530L835 605L760 530H835Z" fill="#000000"/>
  <!-- Bottom Right -->
  <path d="M675 865L770 770L965 770L915 840C890 875 860 895 820 895H735C710 895 690 885 675 865Z" fill="#000000"/>
  <!-- Bottom Left Curve -->
  <path d="M185 785L335 935H235C185 935 150 915 125 880L85 825C60 790 65 750 95 725L185 785Z" fill="#000000"/>
  <!-- Bottom Right Outer -->
  <path d="M900 680L975 755C1005 785 1005 835 975 865L910 935H760L865 820C890 795 900 760 900 680Z" fill="#000000"/>
</svg>
